<svg width="321" height="56" viewBox="0 0 321 56" fill="none" xmlns="http://www.w3.org/2000/svg">
<path d="M13.4 42V9H0.92V-2.86102e-06H36.38V9H23.6V42H13.4ZM51.5998 42.6C48.2798 42.6 45.3198 41.88 42.7198 40.44C40.1598 39 38.1198 37.04 36.5998 34.56C35.1198 32.08 34.3798 29.24 34.3798 26.04C34.3798 22.84 35.1198 20 36.5998 17.52C38.1198 15.04 40.1598 13.08 42.7198 11.64C45.3198 10.2 48.2798 9.48 51.5998 9.48C54.9198 9.48 57.8598 10.2 60.4198 11.64C63.0198 13.08 65.0598 15.04 66.5398 17.52C68.0198 20 68.7598 22.84 68.7598 26.04C68.7598 29.24 68.0198 32.08 66.5398 34.56C65.0598 37.04 63.0198 39 60.4198 40.44C57.8598 41.88 54.9198 42.6 51.5998 42.6ZM51.5998 34.32C53.0398 34.32 54.3198 33.96 55.4398 33.24C56.5598 32.52 57.4398 31.54 58.0798 30.3C58.7198 29.06 59.0198 27.64 58.9798 26.04C59.0198 24.44 58.7198 23.02 58.0798 21.78C57.4398 20.5 56.5598 19.5 55.4398 18.78C54.3198 18.06 53.0398 17.7 51.5998 17.7C50.1598 17.7 48.8598 18.06 47.6998 18.78C46.5798 19.5 45.6998 20.5 45.0598 21.78C44.4198 23.02 44.1198 24.44 44.1598 26.04C44.1198 27.64 44.4198 29.06 45.0598 30.3C45.6998 31.54 46.5798 32.52 47.6998 33.24C48.8598 33.96 50.1598 34.32 51.5998 34.32ZM73.8373 29.16V20.34H94.5973V29.16H73.8373ZM102.952 42V-2.86102e-06H120.532C123.612 -2.86102e-06 126.432 0.519998 128.992 1.56C131.552 2.56 133.752 4 135.592 5.88C137.472 7.76 138.912 9.98 139.912 12.54C140.912 15.1 141.412 17.92 141.412 21C141.412 24.08 140.912 26.92 139.912 29.52C138.912 32.08 137.472 34.3 135.592 36.18C133.752 38.02 131.552 39.46 128.992 40.5C126.432 41.5 123.612 42 120.532 42H102.952ZM113.152 35.04L111.772 33H120.232C121.912 33 123.412 32.72 124.732 32.16C126.052 31.56 127.172 30.74 128.092 29.7C129.052 28.66 129.792 27.4 130.312 25.92C130.832 24.44 131.092 22.8 131.092 21C131.092 19.2 130.832 17.56 130.312 16.08C129.792 14.6 129.052 13.34 128.092 12.3C127.172 11.26 126.052 10.46 124.732 9.9C123.412 9.3 121.912 9 120.232 9H111.592L113.152 7.08V35.04ZM163.28 42.6C159.96 42.6 157 41.88 154.4 40.44C151.84 39 149.8 37.04 148.28 34.56C146.8 32.08 146.06 29.24 146.06 26.04C146.06 22.84 146.8 20 148.28 17.52C149.8 15.04 151.84 13.08 154.4 11.64C157 10.2 159.96 9.48 163.28 9.48C166.6 9.48 169.54 10.2 172.1 11.64C174.7 13.08 176.74 15.04 178.22 17.52C179.7 20 180.44 22.84 180.44 26.04C180.44 29.24 179.7 32.08 178.22 34.56C176.74 37.04 174.7 39 172.1 40.44C169.54 41.88 166.6 42.6 163.28 42.6ZM163.28 34.32C164.72 34.32 166 33.96 167.12 33.24C168.24 32.52 169.12 31.54 169.76 30.3C170.4 29.06 170.7 27.64 170.66 26.04C170.7 24.44 170.4 23.02 169.76 21.78C169.12 20.5 168.24 19.5 167.12 18.78C166 18.06 164.72 17.7 163.28 17.7C161.84 17.7 160.54 18.06 159.38 18.78C158.26 19.5 157.38 20.5 156.74 21.78C156.1 23.02 155.8 24.44 155.84 26.04C155.8 27.64 156.1 29.06 156.74 30.3C157.38 31.54 158.26 32.52 159.38 33.24C160.54 33.96 161.84 34.32 163.28 34.32ZM201.616 42L218.236 -2.86102e-06H226.876L243.376 42H233.056L225.136 20.7C224.816 19.86 224.496 18.96 224.176 18C223.856 17.04 223.536 16.06 223.216 15.06C222.896 14.02 222.576 13.02 222.256 12.06C221.976 11.06 221.736 10.14 221.536 9.3L223.336 9.24C223.096 10.24 222.816 11.22 222.496 12.18C222.216 13.14 221.916 14.1 221.596 15.06C221.316 15.98 220.996 16.92 220.636 17.88C220.276 18.8 219.936 19.76 219.616 20.76L211.696 42H201.616ZM209.536 33.96L212.716 26.28H232.036L235.156 33.96H209.536ZM247.596 55.2V10.14H256.716L257.076 17.28L255.276 16.74C255.556 15.42 256.236 14.22 257.316 13.14C258.396 12.06 259.756 11.2 261.396 10.56C263.076 9.88 264.836 9.54 266.676 9.54C269.396 9.54 271.816 10.26 273.936 11.7C276.056 13.1 277.716 15.04 278.916 17.52C280.156 19.96 280.776 22.8 280.776 26.04C280.776 29.24 280.156 32.08 278.916 34.56C277.716 37.04 276.036 39 273.876 40.44C271.756 41.84 269.316 42.54 266.556 42.54C264.756 42.54 263.036 42.2 261.396 41.52C259.756 40.84 258.376 39.92 257.256 38.76C256.136 37.6 255.396 36.34 255.036 34.98L257.256 34.14V55.2H247.596ZM264.216 34.44C265.656 34.44 266.916 34.1 267.996 33.42C269.076 32.7 269.916 31.72 270.516 30.48C271.116 29.24 271.416 27.76 271.416 26.04C271.416 24.36 271.116 22.9 270.516 21.66C269.916 20.38 269.076 19.4 267.996 18.72C266.956 18 265.696 17.64 264.216 17.64C262.736 17.64 261.456 17.98 260.376 18.66C259.296 19.34 258.456 20.32 257.856 21.6C257.256 22.88 256.956 24.36 256.956 26.04C256.956 27.76 257.256 29.24 257.856 30.48C258.456 31.72 259.296 32.7 260.376 33.42C261.456 34.1 262.736 34.44 264.216 34.44ZM287.147 55.2V10.14H296.267L296.627 17.28L294.827 16.74C295.107 15.42 295.787 14.22 296.867 13.14C297.947 12.06 299.307 11.2 300.947 10.56C302.627 9.88 304.387 9.54 306.227 9.54C308.947 9.54 311.367 10.26 313.487 11.7C315.607 13.1 317.267 15.04 318.467 17.52C319.707 19.96 320.327 22.8 320.327 26.04C320.327 29.24 319.707 32.08 318.467 34.56C317.267 37.04 315.587 39 313.427 40.44C311.307 41.84 308.867 42.54 306.107 42.54C304.307 42.54 302.587 42.2 300.947 41.52C299.307 40.84 297.927 39.92 296.807 38.76C295.687 37.6 294.947 36.34 294.587 34.98L296.807 34.14V55.2H287.147ZM303.767 34.44C305.207 34.44 306.467 34.1 307.547 33.42C308.627 32.7 309.467 31.72 310.067 30.48C310.667 29.24 310.967 27.76 310.967 26.04C310.967 24.36 310.667 22.9 310.067 21.66C309.467 20.38 308.627 19.4 307.547 18.72C306.507 18 305.247 17.64 303.767 17.64C302.287 17.64 301.007 17.98 299.927 18.66C298.847 19.34 298.007 20.32 297.407 21.6C296.807 22.88 296.507 24.36 296.507 26.04C296.507 27.76 296.807 29.24 297.407 30.48C298.007 31.72 298.847 32.7 299.927 33.42C301.007 34.1 302.287 34.44 303.767 34.44Z" fill="#BA5112"/>
</svg>
