<svg width="153" height="131" viewBox="0 0 153 131" fill="none" xmlns="http://www.w3.org/2000/svg">
<path d="M12.6188 42V9H0.13875V-2.86102e-06H35.5988V9H22.8188V42H12.6188ZM50.8186 42.6C47.4986 42.6 44.5386 41.88 41.9386 40.44C39.3786 39 37.3386 37.04 35.8186 34.56C34.3386 32.08 33.5986 29.24 33.5986 26.04C33.5986 22.84 34.3386 20 35.8186 17.52C37.3386 15.04 39.3786 13.08 41.9386 11.64C44.5386 10.2 47.4986 9.48 50.8186 9.48C54.1386 9.48 57.0786 10.2 59.6386 11.64C62.2386 13.08 64.2786 15.04 65.7586 17.52C67.2386 20 67.9786 22.84 67.9786 26.04C67.9786 29.24 67.2386 32.08 65.7586 34.56C64.2786 37.04 62.2386 39 59.6386 40.44C57.0786 41.88 54.1386 42.6 50.8186 42.6ZM50.8186 34.32C52.2586 34.32 53.5386 33.96 54.6586 33.24C55.7786 32.52 56.6586 31.54 57.2986 30.3C57.9386 29.06 58.2386 27.64 58.1986 26.04C58.2386 24.44 57.9386 23.02 57.2986 21.78C56.6586 20.5 55.7786 19.5 54.6586 18.78C53.5386 18.06 52.2586 17.7 50.8186 17.7C49.3786 17.7 48.0786 18.06 46.9186 18.78C45.7986 19.5 44.9186 20.5 44.2786 21.78C43.6386 23.02 43.3386 24.44 43.3786 26.04C43.3386 27.64 43.6386 29.06 44.2786 30.3C44.9186 31.54 45.7986 32.52 46.9186 33.24C48.0786 33.96 49.3786 34.32 50.8186 34.32ZM75.2761 42V-2.86102e-06H92.8561C95.9361 -2.86102e-06 98.7561 0.519998 101.316 1.56C103.876 2.56 106.076 4 107.916 5.88C109.796 7.76 111.236 9.98 112.236 12.54C113.236 15.1 113.736 17.92 113.736 21C113.736 24.08 113.236 26.92 112.236 29.52C111.236 32.08 109.796 34.3 107.916 36.18C106.076 38.02 103.876 39.46 101.316 40.5C98.7561 41.5 95.9361 42 92.8561 42H75.2761ZM85.4761 35.04L84.0961 33H92.5561C94.2361 33 95.7361 32.72 97.0561 32.16C98.3761 31.56 99.4961 30.74 100.416 29.7C101.376 28.66 102.116 27.4 102.636 25.92C103.156 24.44 103.416 22.8 103.416 21C103.416 19.2 103.156 17.56 102.636 16.08C102.116 14.6 101.376 13.34 100.416 12.3C99.4961 11.26 98.3761 10.46 97.0561 9.9C95.7361 9.3 94.2361 9 92.5561 9H83.9161L85.4761 7.08V35.04ZM135.604 42.6C132.284 42.6 129.324 41.88 126.724 40.44C124.164 39 122.124 37.04 120.604 34.56C119.124 32.08 118.384 29.24 118.384 26.04C118.384 22.84 119.124 20 120.604 17.52C122.124 15.04 124.164 13.08 126.724 11.64C129.324 10.2 132.284 9.48 135.604 9.48C138.924 9.48 141.864 10.2 144.424 11.64C147.024 13.08 149.064 15.04 150.544 17.52C152.024 20 152.764 22.84 152.764 26.04C152.764 29.24 152.024 32.08 150.544 34.56C149.064 37.04 147.024 39 144.424 40.44C141.864 41.88 138.924 42.6 135.604 42.6ZM135.604 34.32C137.044 34.32 138.324 33.96 139.444 33.24C140.564 32.52 141.444 31.54 142.084 30.3C142.724 29.06 143.024 27.64 142.984 26.04C143.024 24.44 142.724 23.02 142.084 21.78C141.444 20.5 140.564 19.5 139.444 18.78C138.324 18.06 137.044 17.7 135.604 17.7C134.164 17.7 132.864 18.06 131.704 18.78C130.584 19.5 129.704 20.5 129.064 21.78C128.424 23.02 128.124 24.44 128.164 26.04C128.124 27.64 128.424 29.06 129.064 30.3C129.704 31.54 130.584 32.52 131.704 33.24C132.864 33.96 134.164 34.32 135.604 34.32ZM16.0591 117L32.6791 75H41.3191L57.8191 117H47.4991L39.5791 95.7C39.2591 94.86 38.9391 93.96 38.6191 93C38.2991 92.04 37.9791 91.06 37.6591 90.06C37.3391 89.02 37.0191 88.02 36.6991 87.06C36.4191 86.06 36.1791 85.14 35.9791 84.3L37.7791 84.24C37.5391 85.24 37.2591 86.22 36.9391 87.18C36.6591 88.14 36.3591 89.1 36.0391 90.06C35.7591 90.98 35.4391 91.92 35.0791 92.88C34.7191 93.8 34.3791 94.76 34.0591 95.76L26.1391 117H16.0591ZM23.9791 108.96L27.1591 101.28H46.4791L49.5991 108.96H23.9791ZM62.0393 130.2V85.14H71.1593L71.5193 92.28L69.7193 91.74C69.9993 90.42 70.6793 89.22 71.7593 88.14C72.8393 87.06 74.1993 86.2 75.8393 85.56C77.5193 84.88 79.2793 84.54 81.1193 84.54C83.8393 84.54 86.2593 85.26 88.3793 86.7C90.4993 88.1 92.1593 90.04 93.3593 92.52C94.5993 94.96 95.2193 97.8 95.2193 101.04C95.2193 104.24 94.5993 107.08 93.3593 109.56C92.1593 112.04 90.4793 114 88.3193 115.44C86.1993 116.84 83.7593 117.54 80.9993 117.54C79.1993 117.54 77.4793 117.2 75.8393 116.52C74.1993 115.84 72.8193 114.92 71.6993 113.76C70.5793 112.6 69.8393 111.34 69.4793 109.98L71.6993 109.14V130.2H62.0393ZM78.6593 109.44C80.0993 109.44 81.3593 109.1 82.4393 108.42C83.5193 107.7 84.3593 106.72 84.9593 105.48C85.5593 104.24 85.8593 102.76 85.8593 101.04C85.8593 99.36 85.5593 97.9 84.9593 96.66C84.3593 95.38 83.5193 94.4 82.4393 93.72C81.3993 93 80.1393 92.64 78.6593 92.64C77.1793 92.64 75.8993 92.98 74.8193 93.66C73.7393 94.34 72.8993 95.32 72.2993 96.6C71.6993 97.88 71.3993 99.36 71.3993 101.04C71.3993 102.76 71.6993 104.24 72.2993 105.48C72.8993 106.72 73.7393 107.7 74.8193 108.42C75.8993 109.1 77.1793 109.44 78.6593 109.44ZM101.59 130.2V85.14H110.71L111.07 92.28L109.27 91.74C109.55 90.42 110.23 89.22 111.31 88.14C112.39 87.06 113.75 86.2 115.39 85.56C117.07 84.88 118.83 84.54 120.67 84.54C123.39 84.54 125.81 85.26 127.93 86.7C130.05 88.1 131.71 90.04 132.91 92.52C134.15 94.96 134.77 97.8 134.77 101.04C134.77 104.24 134.15 107.08 132.91 109.56C131.71 112.04 130.03 114 127.87 115.44C125.75 116.84 123.31 117.54 120.55 117.54C118.75 117.54 117.03 117.2 115.39 116.52C113.75 115.84 112.37 114.92 111.25 113.76C110.13 112.6 109.39 111.34 109.03 109.98L111.25 109.14V130.2H101.59ZM118.21 109.44C119.65 109.44 120.91 109.1 121.99 108.42C123.07 107.7 123.91 106.72 124.51 105.48C125.11 104.24 125.41 102.76 125.41 101.04C125.41 99.36 125.11 97.9 124.51 96.66C123.91 95.38 123.07 94.4 121.99 93.72C120.95 93 119.69 92.64 118.21 92.64C116.73 92.64 115.45 92.98 114.37 93.66C113.29 94.34 112.45 95.32 111.85 96.6C111.25 97.88 110.95 99.36 110.95 101.04C110.95 102.76 111.25 104.24 111.85 105.48C112.45 106.72 113.29 107.7 114.37 108.42C115.45 109.1 116.73 109.44 118.21 109.44Z" fill="#BA5112"/>
</svg>
